Patient4_TMGait_0pt3_01_left_26_EMG.mot
version=1
nRows=33
nColumns=33
inDegrees=no
endheader
time	1LAddLong	2LGlutMax	3LGlutMed	4LIliopsoas	5LSemiMemb	6LBicFemLong	7LRecFem	8LVastMed	9LVastLat	10LGasMed	11LTibAnt	12lTibPost	13LPeroneusLong	14LSol	15LExtDigLong	16LFlexDigLong	17RAddLong	18RGlutMax	19RGlutMed	20RIliopsoas	21RSemiMemb	22RBicFemLong	23RRecFem	24RVastMed	25RVastLat	26RGasMed	27RTibAnt	28RTibPost	29RPeroneusLong	30RSol	31RExtDigLong	32RFlexDigLong
49.537	0.020752	0.15671	0.10864	0.008545	0.054474	0.03891	0.13184	0.005646	0.072021	-0.078125	0.014496	-0.00351	0.065308	0.00946	0.000305	-0.027161	0.013275	-0.062866	-0.40985	-0.020447	-0.11185	-0.08667	0.049896	-0.058899	0.011292	-0.014343	0.080872	0.001373	0.061646	-0.020447	-0.002289	-0.014496
49.538	0.014496	0.18723	0.069122	-0.002747	-0.006409	0.09491	0.14389	0.014648	0.024567	-0.076294	-0.012512	-0.006256	0.065613	0.005951	0.013123	-0.020294	0.050049	-0.11871	-0.39948	-0.040894	-0.059967	-0.11231	0.023956	-0.023041	0.02533	-0.020142	0.088806	-0.003204	0.018005	0.019226	-0.005798	-0.014648
49.539	0.014496	0.19302	0.015106	0.021362	-0.063782	0.13443	0.14206	0.02533	0.009613	-0.017395	0.032043	-0.000153	0.045471	0.048828	0.035858	-0.021667	0.044403	-0.0914	-0.37277	-0.09201	-0.016174	-0.19669	0.019989	-0.045166	0.036621	-0.024414	0.11139	-0.003204	-0.075989	0.012512	-0.00473	-0.006561
49.54	0.016327	0.19424	0.016632	-0.005188	-0.05127	0.14038	0.16647	0.026398	0.12848	0.000305	0.068054	-0.002899	0.04425	0.068512	-0.019684	-0.022125	0.020599	-0.058289	-0.2034	-0.11765	-0.080719	-0.074615	0.007782	0.00061	0.036926	-0.020447	0.15411	-0.001984	-0.1326	-0.021973	-0.003815	-0.019379
49.541	0.01297	0.15762	0.060577	0.010529	0.018005	0.15656	0.085907	0.019379	0.25833	0.020599	0.005341	-0.004578	0.021973	0.047455	-0.099182	-0.010681	-0.055389	-0.065002	-0.19241	-0.14023	-0.1416	0.023346	0.01236	-0.020294	0.036926	-0.001373	0.080719	-0.001831	-0.11643	-0.064697	-0.005646	-0.013428
49.542	0.002441	0.1445	0.17944	0.016174	-0.004578	0.16525	0.039063	0.021057	0.26672	0.035553	-0.046692	-0.002441	0.010986	0.049896	-0.1767	-0.022583	-0.10407	-0.044556	-0.14679	-0.08606	0.097809	-0.029602	0.020142	0.023346	0.0354	0.016479	-0.061646	-0.003204	-0.11581	-0.028534	-0.013123	-0.014801
49.543	-0.00351	0.11826	0.11826	0.011444	-0.063171	0.18158	0.065308	0.043335	0.2652	0.036926	-0.054016	-0.006409	0.014801	0.087433	-0.13092	-0.014648	-0.10117	-0.071411	-0.093384	0.015259	0.096893	-0.010223	0.046234	0.029144	0.037994	0.013428	0.038605	-0.00061	-0.3804	0.008545	-0.003204	-0.001984
49.544	0.008087	0.090027	0.090027	0.000153	-0.029602	0.24704	0.034637	0.050964	0.38116	0.049896	-0.033569	-0.000458	-0.11948	0.10864	0.009003	-0.001831	-0.0914	-0.025635	-0.17319	0.12589	0.050507	0.055237	0.083466	-0.015869	0.024719	0.00473	0.10284	-0.002136	-0.57861	-0.038757	-0.004578	-0.003357
49.545	0.008698	0.049896	0.045166	0.007019	-0.000763	0.16968	0.026855	0.044403	0.37018	0.12268	0.010986	-0.002289	0.007629	0.087738	0.011597	-0.004883	-0.076599	-0.013428	-0.088501	0.16129	-0.058899	0.075073	0.11246	-0.009918	0.018005	-0.00412	0.10925	-0.003204	-0.70496	-0.00885	-0.005646	-0.015106
49.546	0.020447	0.058899	-0.01236	-0.010834	0.029755	-0.20447	0.055695	-0.000458	0.2272	0.16007	0.076904	0.002899	0.13473	-0.028534	-0.008087	-0.017548	-0.036621	-0.033264	-0.071564	0.18097	-0.039368	0.058594	0.12146	-0.035248	0.018005	-0.001373	0.045624	-0.001526	0.24277	0.007172	-0.002594	-0.009003
49.547	0.019836	0.024261	-0.089569	0.005646	0.035706	-0.2066	0.05249	-0.020142	-0.063171	0.088501	0.077209	-0.002289	0.42847	-0.091858	-0.003357	-0.003967	0.013123	0.025635	-0.089569	0.11154	0.12238	0.10162	0.10544	-0.035858	0.014801	-0.004578	0.032043	-0.003204	0.40848	0.067139	-0.003662	-0.012817
49.548	0.023041	-0.063019	-0.16449	-0.001831	0.000763	-0.089874	0.037689	-0.028381	-0.12726	0.15411	0.03891	0.00061	-0.080414	-0.047607	0.046692	-0.000763	0.002747	-0.019073	-0.041199	-0.031586	0.14404	0.10422	0.10742	0.005798	0.034027	-0.003967	0.049744	-0.003815	0.44723	0.018768	-0.002594	-0.019531
49.549	0.026093	-0.046082	-0.066071	0.006714	0.033417	0.072632	0.001984	-0.040436	-0.25559	-0.064392	0.030823	0.001221	0.034485	0.002136	0.092621	-0.009918	0.026398	-0.031433	-0.087128	-0.021973	0.13901	0.10529	0.057068	-0.019073	0.014954	-0.001068	0.068207	-0.005951	0.4245	-0.000153	-0.002441	-0.021515
49.55	0.019073	-0.045166	0.14771	0.014648	0.020905	0.24704	-0.056152	0.001373	-0.37582	-0.1651	0.028839	0.000763	-0.25589	-0.006866	0.028839	0.007935	0.059509	-0.075989	-0.075531	0.048218	0.13367	0.054779	0.032654	0.00061	0.015411	-0.001373	0.074005	-0.000458	0.401	-0.021515	-0.003204	-0.018005
49.551	0.01297	-0.10269	0.013275	0.00351	-0.019226	0.025482	-0.044098	0.019073	-0.33081	-0.083008	-0.00412	-0.010681	-0.023651	0.014496	-0.017853	0.020599	0.078735	-0.1001	0.004883	0.088196	0.090332	-0.093689	0.030975	0.007935	0.033875	-0.002136	0.0737	-0.005341	0.088654	-0.037842	-0.005188	-0.017395
49.552	0.010529	-0.080261	-0.014038	0	-0.027771	-0.098267	0.007324	0.02594	-0.29098	-0.029144	0.009918	-0.016022	-0.11887	0.073853	-0.030365	0.00885	0.078735	-0.021362	-0.00412	0.059509	-0.13336	-0.24918	0.048065	-0.019073	0.015717	-0.003052	0.078888	-0.002289	-0.19424	-0.061493	-0.004425	-0.011902
49.553	0.018921	-0.091705	-0.074463	0.005188	-0.027313	0.024872	0.027313	0.023499	-0.17334	0.078278	0.025024	-0.015259	-0.07843	0.12634	-0.052032	0.004425	0.085754	-0.00885	-0.048676	0.018463	-0.19684	-0.27557	0.053864	-0.053558	0.009155	-0.001984	0.081787	-0.001373	0.1358	-0.047607	-0.002899	-0.014496
49.554	0.012054	-0.063171	-0.16342	0.011139	-0.033875	0.11978	0.068665	0.007935	-0.092621	0.12909	0.036163	-0.028076	0.043488	0.21484	-0.071259	-0.002747	0.078888	-0.037994	-0.094757	0.001221	-0.02533	-0.25787	0.029602	-0.036469	0.015869	-0.004883	0.072937	-0.008392	0.27618	-0.027313	-0.002441	-0.012817
49.555	0.002289	-0.049286	-0.16769	0.009613	0.016937	0.21316	0.064697	-0.002441	0.029144	0.42404	0.024872	-0.041504	-0.25116	0.026855	-0.032043	-0.019073	0.065918	-0.043335	-0.049591	-0.011902	-0.025024	-0.15091	0.046692	0.012512	0.027008	-0.007477	0.003967	-0.001526	0.27725	-0.00351	-0.002136	-0.012512
49.556	0.002136	0.009918	-0.13336	0.00351	-0.000763	-0.053406	0.073853	-0.013885	0.1886	0.15457	0.00351	0.046844	0.010223	-0.0737	0.079193	-0.013733	0.034332	-0.029602	0.009613	-0.040588	0.03418	0.006409	0.025177	0.010223	0.025177	-0.008545	0.037842	-0.003357	-0.008087	0.002594	-0.002136	-0.010223
49.557	0.000153	0.12589	0.016937	-0.015717	-0.029907	-0.26062	0.060883	-0.00473	0.076447	0.037994	-0.007782	0.028381	0.35919	-0.25559	0.11902	0.016174	0.018158	-0.016479	-0.076752	-0.088348	-0.005341	0.089874	0.048981	-0.015106	0.02121	-0.004272	0.10956	-0.006256	-0.26947	-0.067444	-0.003357	-0.010376
49.558	-0.001068	0.1712	0.10513	-0.012207	-0.051422	0.015106	0.082855	0.014954	-0.03479	-0.020142	-0.017242	0.023956	0.32745	-0.47119	0.037384	0.003967	0.016022	-0.026245	0.02594	-0.050201	-0.023804	0.28107	0.034485	-0.058289	0.010529	-0.008545	0.093231	-0.006866	0.002899	-0.11185	-0.002136	-0.011139
49.559	-0.009613	0.15778	0.085449	-0.005951	-0.052795	0.074768	0.088043	0.019989	-0.062866	0.23025	0.007477	-0.015106	0.10086	-0.40497	0.080414	0.016785	0.006409	-0.014038	0.037994	-0.013123	-0.024414	0.32547	0.10757	-0.11581	0.007935	-0.00412	0.11169	-0.003204	0.06012	-0.11765	-0.004425	-0.006104
49.56	0.000916	0.20981	0.035858	0.018616	-0.13107	0.090179	0.098114	0.02533	-0.063629	0.31799	0.005646	0.014648	0.38849	-0.3508	0.047913	-0.032349	-0.039215	-0.059204	0.10895	0.058746	-0.009918	0.16388	0.048065	-0.087128	0.00061	-0.005493	0.0383	-0.003204	-0.049438	-0.050659	-0.002136	-0.021362
49.561	-0.002441	0.21591	0.050812	0.01236	-0.16327	0.15457	0.016479	0.028381	0.011597	0.35004	-0.003967	-0.004578	1.3649	-0.37384	0.092163	-0.009613	-0.042877	-0.067902	0.34302	0.063477	-0.020142	-0.00061	0.046844	-0.036774	0.006104	-0.005341	0.031128	-0.001221	-0.093536	-0.023956	-0.004883	-0.01236
49.562	0.001831	0.20172	0.069122	0.015106	-0.085144	0.20401	-0.049896	-0.007172	0.024261	0.32196	-0.004272	0.017853	1.8381	-0.013733	0.15198	0.044708	-0.057068	-0.082855	0.34882	0.06546	-0.039063	-0.19699	0.078888	-0.038757	0.008087	-0.000916	0.04425	-0.005035	-0.1207	-0.025177	-0.00061	-0.010834
49.563	-0.007629	0.20996	-0.00946	0.002136	-0.005798	0.22232	-0.064392	0.015259	0.04425	-0.071716	0.027618	0.016022	-1.2199	0.019989	0.15839	0.013733	-0.047607	-0.13687	0.057068	0.015564	-0.022583	-0.26932	0.1004	-0.043793	0.001526	0.000305	0.040894	0.003967	-0.079193	-0.056	-0.002289	-0.004272
49.564	-0.005035	0.30106	-0.052032	-0.002289	0.020294	0.16785	-0.018311	-0.002136	0.029755	-0.33035	0.015564	0.019989	-2.002	0.19684	0.11307	-0.003815	-0.063782	-0.035858	-0.38956	0.005493	0.11871	-0.13062	0.076447	-0.04425	0.010376	0.000763	0.035706	-0.005035	-0.050964	-0.030365	-0.005798	-0.007324
49.565	0.015717	0.30731	-0.081482	0.014038	0.059814	0.027008	-0.012054	0.018158	0.016022	-0.2684	0.018768	0.024719	-0.82642	0.10193	-0.15656	-0.065613	-0.055695	-0.088196	-0.39719	-0.003052	0.10025	-0.074005	0.073853	-0.033722	0.028534	0	0.054474	-0.005341	-0.043793	-0.045166	-0.00412	-0.002441
49.566	0.00824	0.31616	-0.097504	-0.002136	0.062561	0.055695	0.050812	0.007172	-0.001831	0.04425	0.011749	-0.22018	-0.19043	0.089874	-0.21271	-0.046539	-0.052795	-0.06012	-0.043488	-0.043182	0.039825	-0.15625	0.053864	0.021515	0.044098	-0.001831	0.046692	-0.002441	-0.046844	-0.052795	-0.001373	-0.015259
49.567	0.031128	0.29175	-0.093536	0.003662	0.060425	0.22568	0.069122	0.001526	-0.015564	-0.10178	-0.004578	0.016174	-0.25559	0.11032	-0.159	0.06897	-0.033722	-0.068512	0.15839	-0.062408	0.034485	-0.091553	0.066223	0.030518	0.046692	0.000763	0.049133	-0.009613	-0.22903	-0.058899	-0.000916	-0.01358
49.568	0.031128	0.34347	-0.094299	0.013123	0.050354	0.27786	0.098419	0.016327	0.014038	0.046234	0.003204	0.023804	0.18524	-0.16571	-0.12711	0.063477	-0.041351	-0.10223	0.22324	-0.04364	0.075989	0.062408	0.041962	0.037384	0.015259	-0.002136	0.058289	-0.002289	-0.24262	-0.045166	-0.000916	-0.013123
49.569	0.023499	0.35812	-0.075378	0.006866	0.024261	0.3038	0.078735	0.009918	0.055847	0.45288	-0.018616	0.026398	0.42038	0.077057	-0.014191	-0.010376	-0.012512	-0.042877	0.13062	-0.066376	0.062256	0.13519	0.062561	0.012665	0.011597	-0.001068	0.064087	-0.003052	-0.33554	-0.056915	-0.002441	-0.018616
